<?xml version="1.0" standalone="no"?><!DOCTYPE svg PUBLIC "-//W3C//DTD SVG 1.1//EN" "http://www.w3.org/Graphics/SVG/1.1/DTD/svg11.dtd"><svg t="1684732535395" class="icon" viewBox="0 0 1024 1024" version="1.1" xmlns="http://www.w3.org/2000/svg" p-id="3155" xmlns:xlink="http://www.w3.org/1999/xlink" width="200" height="200"><path d="M238.6 842.5l42.4-99.3L141.5 732l-49.4 45.8 146.1 64.4zM485.9 136.2L435.5 212l50.2 3.8 36.7-55.3c6.7-10 3.9-23.6-6.2-30.3-10.1-6.8-23.6-4-30.3 6z" fill="#FEC50D" p-id="3156"></path><path d="M451 213.1l-109.9-9.2 0.2-0.2-50-4-0.1 0.1-132.1-11L85.9 299l400.3 78.9 13.8 9.3 95.7-158-7.4-4.9-87.4-7.2 0.3-0.5-49.9-4zM717.5 289L610.8 438.3l9.1 5.9 242.5 348.6 73.2-110.2-139.6-251 0.4-0.5-74.3-138.7z" fill="#44C0D9" p-id="3157"></path><path d="M284.2 872.8l124 115.2 23.2-63.3-74.9-135.2-73.1 82.8zM934.4 530.1c6.7-10.1 3.9-23.7-6.2-30.4-10-6.7-23.7-4-30.4 6.1l-33.1 49.4 23 44.7 46.7-69.8zM811.1 343.3l-34.2 51.4 23.4 44.6 47.3-71.7c6.7-10 3.9-23.6-6.2-30.3-10-6.7-23.6-4.1-30.3 6zM380.9 144.1c6.7-10.1 3.9-23.7-6.1-30.4-10.1-6.7-23.7-3.9-30.4 6.2l-53.1 79.9 50.1 4.2 39.5-59.9z" fill="#FEC50D" p-id="3158"></path><path d="M797.9 320C878 184.7 832.6 87 811.4 53.7c-5.4-8.4-13.6-13.9-23.5-15.5-38.7-6.1-146.3-8.5-238.8 119.2-127.3 176-305.4 583.8-353 666.2l42.2 18.6 45.2 30 43.9 40.5c57.5-78.2 354-395.9 470.5-592.7z" fill="#005B7D" p-id="3159"></path><path d="M761.4 98.6c-1.5-1-3-1.9-4.4-2.8-27.9-17-58.1-20.9-73.4 2.1 0 0 34.2 2.2 60.8 17 2 1.1 4 2.3 5.8 3.6 27.1 18 47.5 52.5 47.5 52.5 13.6-20.3-7.2-53-36.3-72.4z" fill="#FFFFFF" p-id="3160"></path></svg>