<svg t="1682763489594" class="icon" viewBox="0 0 1152 1024" version="1.1" xmlns="http://www.w3.org/2000/svg" p-id="3631" width="100" height="100"><path d="M970.944 975.488H179.84c-99.2 0-179.776-80.64-179.776-179.84v-503.68a35.968 35.968 0 1 1 71.936 0v503.68c0 59.52 48.384 107.904 107.84 107.904h791.168c59.52 0 107.904-48.384 107.904-107.904v-503.68a35.968 35.968 0 1 1 71.936 0v503.68c0 99.2-80.64 179.84-179.84 179.84zM532.096 135.488L363.008 304.64a43.648 43.648 0 0 1-31.04 12.864 43.648 43.648 0 0 1-31.104-12.864 43.648 43.648 0 0 1-12.864-31.04c0-11.776 4.544-22.784 12.864-31.104L520.32 22.976C535.168 8.192 554.944 0 576 0c21.12 0 40.896 8.192 55.744 23.04L851.2 242.432a43.968 43.968 0 0 1-62.08 62.144L619.904 135.552V610.56a43.968 43.968 0 0 1-87.872 0V135.488z" fill="#4B535A" p-id="3632"></path></svg>